<?xml version="1.0" encoding="utf-8"?>
<!-- Generator: Adobe Illustrator 25.2.0, SVG Export Plug-In . SVG Version: 6.00 Build 0)  -->
<svg version="1.1" xmlns="http://www.w3.org/2000/svg" xmlns:xlink="http://www.w3.org/1999/xlink" x="0px" y="0px"
	 viewBox="0 0 680 165" style="enable-background:new 0 0 680 165;" xml:space="preserve">
<style type="text/css">
	.st0{fill:#FFFFFF;}
	.st1{fill:#3059D9;}
	.st2{opacity:0.8;clip-path:url(#SVGID_2_);fill:#E96380;}
	.st3{opacity:0.8;clip-path:url(#SVGID_2_);}
	.st4{fill:#9C339C;}
	.st5{opacity:0.8;clip-path:url(#SVGID_2_);fill:url(#SVGID_3_);}
	.st6{opacity:0.5;clip-path:url(#SVGID_2_);fill:url(#SVGID_4_);}
	.st7{clip-path:url(#SVGID_6_);}
	.st8{clip-path:url(#SVGID_8_);fill:url(#SVGID_9_);}
	.st9{clip-path:url(#SVGID_8_);fill:url(#SVGID_10_);}
	.st10{clip-path:url(#SVGID_8_);}
	.st11{fill:url(#SVGID_11_);}
	.st12{opacity:0.61;clip-path:url(#SVGID_8_);fill:#FC6870;}
	.st13{clip-path:url(#SVGID_13_);}
	.st14{clip-path:url(#SVGID_15_);fill:url(#SVGID_16_);}
	.st15{clip-path:url(#SVGID_15_);fill:url(#SVGID_17_);}
	.st16{clip-path:url(#SVGID_15_);}
	.st17{fill:url(#SVGID_18_);}
	.st18{opacity:0.61;clip-path:url(#SVGID_15_);fill:#FC6870;}
	.st19{clip-path:url(#SVGID_20_);}
	.st20{clip-path:url(#SVGID_22_);fill:url(#SVGID_23_);}
	.st21{clip-path:url(#SVGID_22_);fill:url(#SVGID_24_);}
	.st22{clip-path:url(#SVGID_22_);}
	.st23{fill:url(#SVGID_25_);}
	.st24{opacity:0.61;clip-path:url(#SVGID_22_);fill:#FC6870;}
	.st25{opacity:0.8;clip-path:url(#SVGID_27_);fill:#E96380;}
	.st26{opacity:0.8;clip-path:url(#SVGID_27_);}
	.st27{opacity:0.8;clip-path:url(#SVGID_27_);fill:url(#SVGID_28_);}
	.st28{opacity:0.5;clip-path:url(#SVGID_27_);fill:url(#SVGID_29_);}
	.st29{opacity:0.8;clip-path:url(#SVGID_31_);fill:#E96380;}
	.st30{opacity:0.8;clip-path:url(#SVGID_31_);}
	.st31{opacity:0.8;clip-path:url(#SVGID_31_);fill:url(#SVGID_32_);}
	.st32{opacity:0.5;clip-path:url(#SVGID_31_);fill:url(#SVGID_33_);}
	.st33{opacity:0.8;clip-path:url(#SVGID_35_);fill:#E96380;}
	.st34{opacity:0.8;clip-path:url(#SVGID_35_);}
	.st35{opacity:0.8;clip-path:url(#SVGID_35_);fill:url(#SVGID_36_);}
	.st36{opacity:0.5;clip-path:url(#SVGID_35_);fill:url(#SVGID_37_);}
	.st37{clip-path:url(#SVGID_39_);}
	.st38{clip-path:url(#SVGID_41_);fill:url(#SVGID_42_);}
	.st39{clip-path:url(#SVGID_41_);fill:url(#SVGID_43_);}
	.st40{clip-path:url(#SVGID_41_);}
	.st41{fill:url(#SVGID_44_);}
	.st42{opacity:0.61;clip-path:url(#SVGID_41_);fill:#FC6870;}
	.st43{clip-path:url(#SVGID_46_);}
	.st44{clip-path:url(#SVGID_48_);fill:url(#SVGID_49_);}
	.st45{clip-path:url(#SVGID_48_);fill:url(#SVGID_50_);}
	.st46{clip-path:url(#SVGID_48_);}
	.st47{fill:url(#SVGID_51_);}
	.st48{opacity:0.61;clip-path:url(#SVGID_48_);fill:#FC6870;}
</style>
<g id="Layer_1">
	<g>
		<g>
			<path d="M29.7,107.23c0,18.6,11.65,29.22,27.79,29.22c13.08,0,23.5-8.38,23.5-21.25c0-14.51-12.87-19.21-22.68-22.68
				c-26.16-9.2-47.21-17.17-47.21-45.78c0-23.71,20.43-39.24,44.35-39.24c25.75,0,45.57,18.19,45.57,44.75h-23.5
				c0-14.1-8.17-23.7-21.46-23.7c-11.65,0-21.46,6.13-21.46,18.19c0,11.65,10.22,17.16,20.84,21.05
				c22.27,7.97,49.05,17.37,49.05,44.75c0,29.43-22.48,44.96-49.05,44.96c-25.95,0-49.25-18.19-49.25-50.27H29.7z"/>
		</g>
		<polygon points="156.4,32.02 156.4,77.39 215.46,77.39 215.46,98.44 156.4,98.44 156.4,154.03 132.89,154.03 132.89,10.97 
			215.46,10.97 215.46,32.02 		"/>
		<g>
			<path d="M382.82,108.04c-6.34,27.79-32.7,49.46-67.85,49.46c-46.8,0-75.2-34.95-75.2-75.2c0-38.83,27.79-74.8,72.75-74.8
				c42.51,0,65.8,24.73,70.3,55.59h-24.73c-3.47-19.62-19.01-34.54-42.51-34.54c-32.9,0-51.7,25.75-51.7,53.75
				c0,29.43,19.41,54.16,54.16,54.16c16.55,0,34.33-12.06,39.03-28.41H382.82z"/>
			<path d="M480.49,106.41c0-16.35-11.04-30.24-28.2-30.24c-16.76,0-27.79,13.9-27.79,30.24s11.04,30.25,27.79,30.25
				C469.45,136.66,480.49,122.76,480.49,106.41 M402.22,106.41c0-26.97,19.82-50.07,50.07-50.07c30.65,0,50.48,23.09,50.48,50.07
				c0,26.98-19.82,50.07-50.48,50.07C422.04,156.48,402.22,133.39,402.22,106.41"/>
			<path d="M529.52,58.79h22.28v95.23h-22.28V58.79z M540.56,7.5c9.2,0,16.55,7.36,16.55,16.55c0,8.99-7.36,16.35-16.55,16.35
				c-8.99,0-16.35-7.36-16.35-16.35C524.21,14.86,531.57,7.5,540.56,7.5"/>
			<path d="M585.72,58.79h22.27v13.28c5.93-10.22,16.96-15.73,31.06-15.73c13.69,0,23.3,4.91,28.61,12.87
				c4.7,7.15,6.13,15.12,6.13,28.2v56.61h-22.28v-49.25c0-16.35-4.7-28.81-20.64-28.81c-15.53,0-22.89,12.47-22.89,28.81v49.25
				h-22.27V58.79z"/>
		</g>
	</g>
</g>
<g id="Layer_2">
</g>
</svg>
