<?xml version="1.0" encoding="utf-8"?>
<!-- Generator: Adobe Illustrator 25.4.1, SVG Export Plug-In . SVG Version: 6.00 Build 0)  -->
<svg version="1.1" id="Layer_1" xmlns="http://www.w3.org/2000/svg" xmlns:xlink="http://www.w3.org/1999/xlink" x="0px" y="0px"
	 viewBox="0 0 1030 150" style="enable-background:new 0 0 1030 150;" xml:space="preserve">
<style type="text/css">
	.st0{fill:#FFFFFF;}
	.st1{clip-path:url(#SVGID_00000105428864163807807470000004568076823276850078_);}
	.st2{clip-path:url(#SVGID_00000094592036304502498720000001668869297944473246_);fill:#F3EDDF;}
	.st3{clip-path:url(#SVGID_00000094592036304502498720000001668869297944473246_);fill:#62D9D9;}
	.st4{opacity:0.9;clip-path:url(#SVGID_00000094592036304502498720000001668869297944473246_);fill:#F25D50;}
	.st5{opacity:0.7;clip-path:url(#SVGID_00000094592036304502498720000001668869297944473246_);}
	.st6{fill:#07869F;}
	.st7{opacity:0.5;clip-path:url(#SVGID_00000094592036304502498720000001668869297944473246_);}
	.st8{fill:#F3EDDF;}
	.st9{opacity:0.67;clip-path:url(#SVGID_00000094592036304502498720000001668869297944473246_);}
	.st10{fill:url(#SVGID_00000100381941786521778790000017781051609740581809_);}
	.st11{clip-path:url(#SVGID_00000136378580540753929280000002407854120728404629_);}
	.st12{clip-path:url(#SVGID_00000148652019687777634400000016441795967402454409_);fill:#F3EDDF;}
	.st13{clip-path:url(#SVGID_00000148652019687777634400000016441795967402454409_);fill:#62D9D9;}
	.st14{opacity:0.9;clip-path:url(#SVGID_00000148652019687777634400000016441795967402454409_);fill:#F25D50;}
	.st15{opacity:0.7;clip-path:url(#SVGID_00000148652019687777634400000016441795967402454409_);}
	.st16{opacity:0.5;clip-path:url(#SVGID_00000148652019687777634400000016441795967402454409_);}
	.st17{opacity:0.67;clip-path:url(#SVGID_00000148652019687777634400000016441795967402454409_);}
	.st18{fill:url(#SVGID_00000095318847074195790740000002220267271242134180_);}
	.st19{clip-path:url(#SVGID_00000003077658275165118080000005552676287163316865_);}
	.st20{clip-path:url(#SVGID_00000073693429205807340490000003109538023111365309_);fill:#F3EDDF;}
	.st21{clip-path:url(#SVGID_00000073693429205807340490000003109538023111365309_);fill:#62D9D9;}
	.st22{opacity:0.9;clip-path:url(#SVGID_00000073693429205807340490000003109538023111365309_);fill:#F25D50;}
	.st23{opacity:0.7;clip-path:url(#SVGID_00000073693429205807340490000003109538023111365309_);}
	.st24{opacity:0.5;clip-path:url(#SVGID_00000073693429205807340490000003109538023111365309_);}
	.st25{opacity:0.67;clip-path:url(#SVGID_00000073693429205807340490000003109538023111365309_);}
	.st26{fill:url(#SVGID_00000129192738551668174640000016073737726650549380_);}
	.st27{clip-path:url(#SVGID_00000113331791601133956530000012806205769456137856_);}
	.st28{clip-path:url(#SVGID_00000181084075655927180110000002363935686933296022_);fill:#F3EDDF;}
	.st29{clip-path:url(#SVGID_00000181084075655927180110000002363935686933296022_);fill:#62D9D9;}
	.st30{opacity:0.9;clip-path:url(#SVGID_00000181084075655927180110000002363935686933296022_);fill:#F25D50;}
	.st31{opacity:0.7;clip-path:url(#SVGID_00000181084075655927180110000002363935686933296022_);}
	.st32{opacity:0.5;clip-path:url(#SVGID_00000181084075655927180110000002363935686933296022_);}
	.st33{opacity:0.67;clip-path:url(#SVGID_00000181084075655927180110000002363935686933296022_);}
	.st34{fill:url(#SVGID_00000155856008939171878850000005017788073591343759_);}
	.st35{fill:#62D9D9;}
	.st36{fill:#F25D50;}
	.st37{clip-path:url(#SVGID_00000010292764731107923670000006660392860901477552_);fill:#F3EDDF;}
	.st38{clip-path:url(#SVGID_00000010292764731107923670000006660392860901477552_);fill:#62D9D9;}
	.st39{opacity:0.9;clip-path:url(#SVGID_00000010292764731107923670000006660392860901477552_);fill:#F25D50;}
	.st40{opacity:0.7;clip-path:url(#SVGID_00000010292764731107923670000006660392860901477552_);}
	.st41{opacity:0.46;clip-path:url(#SVGID_00000010292764731107923670000006660392860901477552_);}
	.st42{opacity:0.67;clip-path:url(#SVGID_00000010292764731107923670000006660392860901477552_);}
	.st43{fill:url(#SVGID_00000016762114575120939600000010910518018885917605_);}
	.st44{clip-path:url(#SVGID_00000070111276576323905410000007354113833349150375_);fill:#F3EDDF;}
	.st45{clip-path:url(#SVGID_00000070111276576323905410000007354113833349150375_);fill:#62D9D9;}
	.st46{opacity:0.9;clip-path:url(#SVGID_00000070111276576323905410000007354113833349150375_);fill:#F25D50;}
	.st47{opacity:0.7;clip-path:url(#SVGID_00000070111276576323905410000007354113833349150375_);}
	.st48{opacity:0.46;clip-path:url(#SVGID_00000070111276576323905410000007354113833349150375_);}
	.st49{opacity:0.67;clip-path:url(#SVGID_00000070111276576323905410000007354113833349150375_);}
	.st50{fill:url(#SVGID_00000030454700119863456730000004897574009346125724_);}
	.st51{clip-path:url(#SVGID_00000146486768516237930830000014933845544007871147_);fill:#F3EDDF;}
	.st52{clip-path:url(#SVGID_00000146486768516237930830000014933845544007871147_);fill:#62D9D9;}
	.st53{opacity:0.9;clip-path:url(#SVGID_00000146486768516237930830000014933845544007871147_);fill:#F25D50;}
	.st54{opacity:0.7;clip-path:url(#SVGID_00000146486768516237930830000014933845544007871147_);}
	.st55{opacity:0.46;clip-path:url(#SVGID_00000146486768516237930830000014933845544007871147_);}
	.st56{opacity:0.67;clip-path:url(#SVGID_00000146486768516237930830000014933845544007871147_);}
	.st57{fill:url(#SVGID_00000005244657980944894880000013941480176643904955_);}
</style>
<g>
	<g>
		<path class="st0" d="M98.66,145.57l-6.05-17.95H39.58l-6.05,17.95H9.13L57.93,4.43h16.33l48.8,141.14H98.66z M66.19,42.94
			l-19.56,63.92h38.91L66.19,42.94z"/>
		<path class="st0" d="M224.67,51.61v93.96h-21.98v-13.11c-5.85,10.08-16.74,15.53-30.65,15.53c-13.51,0-22.99-4.84-28.23-12.7
			c-4.64-7.06-6.05-14.92-6.05-27.83V51.61h21.98v48.59c0,16.13,4.64,28.43,20.37,28.43c15.32,0,22.58-12.3,22.58-28.43V51.61
			H224.67z"/>
		<path class="st0" d="M326.49,119.36c0,19.56-16.94,28.63-37.5,28.63c-20.16,0-38.31-11.9-38.31-34.08h21.37
			c0,12.3,7.66,16.74,18.15,16.74c8.67,0,15.32-2.82,15.32-10.89c0-8.87-9.48-9.48-29.24-17.14c-13.11-5.04-22.38-9.88-22.38-26.21
			c0-17.74,16.13-27.22,35.29-27.22c19.96,0,35.89,13.51,35.89,31.86H303.7c0-8.87-4.44-14.52-15.12-14.52
			c-7.46,0-13.51,3.63-13.51,10.28c0,8.07,8.67,9.08,25.81,15.73C313.99,97.58,326.49,102.22,326.49,119.36z"/>
		<path class="st0" d="M402.7,145.57c-3.43,0.6-9.88,1.21-16.33,1.21c-10.69,0-30.45-1.41-30.45-33.07V69.96h-15.93V51.61h15.93
			V23.18h21.98v28.43h21.58v18.35H377.9v38.71c0,16.33,5.04,18.35,13.71,18.35c3.43,0,8.87-0.4,11.09-0.81V145.57z"/>
		<path class="st0" d="M436.37,1c9.07,0,16.33,7.26,16.33,16.33c0,8.87-7.26,16.13-16.33,16.13c-8.87,0-16.13-7.26-16.13-16.13
			C420.24,8.26,427.5,1,436.37,1z M425.48,51.61h21.98v93.96h-21.98V51.61z"/>
		<path class="st0" d="M480.92,51.61h21.98v13.11c5.85-10.08,16.74-15.53,30.65-15.53c13.51,0,22.99,4.84,28.23,12.7
			c4.64,7.06,6.05,14.92,6.05,27.83v55.85h-21.98V96.98c0-16.13-4.64-28.43-20.37-28.43c-15.32,0-22.58,12.3-22.58,28.43v48.59
			h-21.98V51.61z"/>
		<path class="st0" d="M733.76,100.2c-6.25,27.42-32.26,48.8-66.94,48.8c-46.17,0-74.2-34.48-74.2-74.2
			c0-38.31,27.42-73.8,71.78-73.8c41.94,0,64.93,24.4,69.36,54.84h-24.4c-3.43-19.36-18.75-34.08-41.94-34.08
			c-32.46,0-51.01,25.41-51.01,53.03c0,29.04,19.16,53.43,53.43,53.43c16.33,0,33.88-11.9,38.51-28.03H733.76z"/>
		<path class="st0" d="M752.91,98.59c0-26.61,19.56-49.4,49.4-49.4c30.25,0,49.8,22.78,49.8,49.4c0,26.62-19.56,49.4-49.8,49.4
			C772.47,147.99,752.91,125.21,752.91,98.59z M830.14,98.59c0-16.13-10.89-29.84-27.83-29.84c-16.53,0-27.42,13.71-27.42,29.84
			c0,16.13,10.89,29.84,27.42,29.84C819.25,128.43,830.14,114.72,830.14,98.59z"/>
		<path class="st0" d="M889.41,1c9.07,0,16.33,7.26,16.33,16.33c0,8.87-7.26,16.13-16.33,16.13c-8.87,0-16.13-7.26-16.13-16.13
			C873.28,8.26,880.53,1,889.41,1z M878.52,51.61h21.98v93.96h-21.98V51.61z"/>
		<path class="st0" d="M933.96,51.61h21.98v13.11c5.85-10.08,16.74-15.53,30.65-15.53c13.51,0,22.99,4.84,28.23,12.7
			c4.64,7.06,6.05,14.92,6.05,27.83v55.85h-21.98V96.98c0-16.13-4.64-28.43-20.37-28.43c-15.32,0-22.58,12.3-22.58,28.43v48.59
			h-21.98V51.61z"/>
	</g>
</g>
</svg>
