<?xml version="1.0" encoding="utf-8"?>
<!-- Generator: Adobe Illustrator 25.4.1, SVG Export Plug-In . SVG Version: 6.00 Build 0)  -->
<svg version="1.1" id="Layer_1" xmlns="http://www.w3.org/2000/svg" xmlns:xlink="http://www.w3.org/1999/xlink" x="0px" y="0px"
	 viewBox="0 0 770 150" style="enable-background:new 0 0 770 150;" xml:space="preserve">
<style type="text/css">
	.st0{fill:#FFFFFF;}
	.st1{clip-path:url(#SVGID_00000088111866195324197680000005068872487972091776_);}
	.st2{clip-path:url(#SVGID_00000022547436603309855400000006210331334963312260_);fill:#F3EDDF;}
	.st3{clip-path:url(#SVGID_00000022547436603309855400000006210331334963312260_);fill:#62D9D9;}
	.st4{opacity:0.9;clip-path:url(#SVGID_00000022547436603309855400000006210331334963312260_);fill:#F25D50;}
	.st5{opacity:0.7;clip-path:url(#SVGID_00000022547436603309855400000006210331334963312260_);}
	.st6{fill:#07869F;}
	.st7{opacity:0.5;clip-path:url(#SVGID_00000022547436603309855400000006210331334963312260_);}
	.st8{fill:#F3EDDF;}
	.st9{opacity:0.67;clip-path:url(#SVGID_00000022547436603309855400000006210331334963312260_);}
	.st10{fill:url(#SVGID_00000029042099307596232680000006152128810156716199_);}
	.st11{clip-path:url(#SVGID_00000001651260150792979500000013016149409215026823_);}
	.st12{clip-path:url(#SVGID_00000117667863141965592210000009390518729953561775_);fill:#F3EDDF;}
	.st13{clip-path:url(#SVGID_00000117667863141965592210000009390518729953561775_);fill:#62D9D9;}
	.st14{opacity:0.9;clip-path:url(#SVGID_00000117667863141965592210000009390518729953561775_);fill:#F25D50;}
	.st15{opacity:0.7;clip-path:url(#SVGID_00000117667863141965592210000009390518729953561775_);}
	.st16{opacity:0.5;clip-path:url(#SVGID_00000117667863141965592210000009390518729953561775_);}
	.st17{opacity:0.67;clip-path:url(#SVGID_00000117667863141965592210000009390518729953561775_);}
	.st18{fill:url(#SVGID_00000048482915511088146640000012603744853614368131_);}
	.st19{clip-path:url(#SVGID_00000062160444630958623690000002392390868688136353_);}
	.st20{clip-path:url(#SVGID_00000110455271288031662320000009076210867803665819_);fill:#F3EDDF;}
	.st21{clip-path:url(#SVGID_00000110455271288031662320000009076210867803665819_);fill:#62D9D9;}
	.st22{opacity:0.9;clip-path:url(#SVGID_00000110455271288031662320000009076210867803665819_);fill:#F25D50;}
	.st23{opacity:0.7;clip-path:url(#SVGID_00000110455271288031662320000009076210867803665819_);}
	.st24{opacity:0.5;clip-path:url(#SVGID_00000110455271288031662320000009076210867803665819_);}
	.st25{opacity:0.67;clip-path:url(#SVGID_00000110455271288031662320000009076210867803665819_);}
	.st26{fill:url(#SVGID_00000036943338789567885790000002728932258949860769_);}
	.st27{clip-path:url(#SVGID_00000035533280720103671680000008650117464814671275_);}
	.st28{clip-path:url(#SVGID_00000036956956967287021190000012723407019217466246_);fill:#F3EDDF;}
	.st29{clip-path:url(#SVGID_00000036956956967287021190000012723407019217466246_);fill:#62D9D9;}
	.st30{opacity:0.9;clip-path:url(#SVGID_00000036956956967287021190000012723407019217466246_);fill:#F25D50;}
	.st31{opacity:0.7;clip-path:url(#SVGID_00000036956956967287021190000012723407019217466246_);}
	.st32{opacity:0.5;clip-path:url(#SVGID_00000036956956967287021190000012723407019217466246_);}
	.st33{opacity:0.67;clip-path:url(#SVGID_00000036956956967287021190000012723407019217466246_);}
	.st34{fill:url(#SVGID_00000004540531204367403790000007085413100720365729_);}
	.st35{fill:#62D9D9;}
	.st36{fill:#F25D50;}
	.st37{clip-path:url(#SVGID_00000163068712904924042210000018023463366994317757_);fill:#F3EDDF;}
	.st38{clip-path:url(#SVGID_00000163068712904924042210000018023463366994317757_);fill:#62D9D9;}
	.st39{opacity:0.9;clip-path:url(#SVGID_00000163068712904924042210000018023463366994317757_);fill:#F25D50;}
	.st40{opacity:0.7;clip-path:url(#SVGID_00000163068712904924042210000018023463366994317757_);}
	.st41{opacity:0.46;clip-path:url(#SVGID_00000163068712904924042210000018023463366994317757_);}
	.st42{opacity:0.67;clip-path:url(#SVGID_00000163068712904924042210000018023463366994317757_);}
	.st43{fill:url(#SVGID_00000090287498935643346010000009359226296404732309_);}
	.st44{clip-path:url(#SVGID_00000137133805401045707150000005489719973242389633_);fill:#F3EDDF;}
	.st45{clip-path:url(#SVGID_00000137133805401045707150000005489719973242389633_);fill:#62D9D9;}
	.st46{opacity:0.9;clip-path:url(#SVGID_00000137133805401045707150000005489719973242389633_);fill:#F25D50;}
	.st47{opacity:0.7;clip-path:url(#SVGID_00000137133805401045707150000005489719973242389633_);}
	.st48{opacity:0.46;clip-path:url(#SVGID_00000137133805401045707150000005489719973242389633_);}
	.st49{opacity:0.67;clip-path:url(#SVGID_00000137133805401045707150000005489719973242389633_);}
	.st50{fill:url(#SVGID_00000140709731216041687610000013402134198442405008_);}
	.st51{clip-path:url(#SVGID_00000026128240716819309370000009941303896012472763_);fill:#F3EDDF;}
	.st52{clip-path:url(#SVGID_00000026128240716819309370000009941303896012472763_);fill:#62D9D9;}
	.st53{opacity:0.9;clip-path:url(#SVGID_00000026128240716819309370000009941303896012472763_);fill:#F25D50;}
	.st54{opacity:0.7;clip-path:url(#SVGID_00000026128240716819309370000009941303896012472763_);}
	.st55{opacity:0.46;clip-path:url(#SVGID_00000026128240716819309370000009941303896012472763_);}
	.st56{opacity:0.67;clip-path:url(#SVGID_00000026128240716819309370000009941303896012472763_);}
	.st57{fill:url(#SVGID_00000113337354699920492740000010483966192421561479_);}
</style>
<g>
	<g>
		<path class="st0" d="M94.63,146.05l-6.09-18.07H35.15l-6.09,18.07H4.5L53.63,3.95h16.44l49.12,142.1H94.63z M61.95,42.72
			l-19.69,64.35h39.18L61.95,42.72z"/>
		<path class="st0" d="M150.86,24.86h-35.12V3.95h93.79v20.91H174.2v121.19h-23.34V24.86z"/>
		<path class="st0" d="M301.68,3.95h26.39L285.84,75l42.22,71.05h-26.39L272.65,95.3l-29.03,50.75h-26.39L259.45,75L217.23,3.95
			h26.39l29.03,50.95L301.68,3.95z"/>
		<path class="st0" d="M476.45,100.38c-6.29,27.61-32.48,49.12-67.4,49.12c-46.49,0-74.7-34.71-74.7-74.7
			c0-38.57,27.61-74.3,72.27-74.3c42.22,0,65.37,24.56,69.83,55.21h-24.56c-3.45-19.49-18.88-34.31-42.22-34.31
			c-32.68,0-51.36,25.58-51.36,53.39c0,29.23,19.28,53.8,53.79,53.8c16.44,0,34.1-11.98,38.77-28.22H476.45z"/>
		<path class="st0" d="M495.73,98.75c0-26.79,19.69-49.73,49.73-49.73c30.45,0,50.14,22.94,50.14,49.73
			c0,26.8-19.69,49.74-50.14,49.74C515.42,148.49,495.73,125.55,495.73,98.75z M573.48,98.75c0-16.24-10.96-30.04-28.01-30.04
			c-16.65,0-27.61,13.8-27.61,30.04c0,16.24,10.96,30.04,27.61,30.04C562.51,128.79,573.48,114.99,573.48,98.75z"/>
		<path class="st0" d="M633.15,0.5c9.14,0,16.44,7.31,16.44,16.44c0,8.93-7.31,16.24-16.44,16.24c-8.93,0-16.24-7.31-16.24-16.24
			C616.91,7.81,624.22,0.5,633.15,0.5z M622.19,51.45h22.13v94.6h-22.13V51.45z"/>
		<path class="st0" d="M678.01,51.45h22.13v13.19c5.89-10.15,16.85-15.63,30.86-15.63c13.6,0,23.14,4.87,28.42,12.79
			c4.67,7.11,6.09,15.02,6.09,28.01v56.23h-22.13V97.13c0-16.24-4.67-28.62-20.5-28.62c-15.43,0-22.74,12.38-22.74,28.62v48.92
			h-22.13V51.45z"/>
	</g>
</g>
</svg>
