<?xml version="1.0" encoding="utf-8"?>
<!-- Generator: Adobe Illustrator 25.2.0, SVG Export Plug-In . SVG Version: 6.00 Build 0)  -->
<svg version="1.1" id="Layer_1" xmlns="http://www.w3.org/2000/svg" xmlns:xlink="http://www.w3.org/1999/xlink" x="0px" y="0px"
	 viewBox="0 0 1920 1080" style="enable-background:new 0 0 1920 1080;" xml:space="preserve">
<style type="text/css">
	.st0{fill:#FEEBD1;}
	.st1{opacity:0.8;clip-path:url(#SVGID_2_);}
	.st2{fill:url(#SVGID_3_);}
	.st3{opacity:0.61;clip-path:url(#SVGID_5_);fill:#FC6870;enable-background:new    ;}
	.st4{clip-path:url(#SVGID_7_);fill:url(#SVGID_8_);}
	.st5{clip-path:url(#SVGID_10_);fill:url(#SVGID_11_);}
</style>
<g id="Layer_1_1_">
	<g>
		<g>
			<polygon id="SVGID_68_" class="st0" points="-0.77,1076.27 1919.66,1082.08 1920.98,0.76 0.12,0.18 			"/>
		</g>
		<g>
			<defs>
				<polygon id="SVGID_1_" points="-0.77,1076.27 1919.66,1082.08 1920.98,0.76 0.12,0.18 				"/>
			</defs>
			<clipPath id="SVGID_2_">
				<use xlink:href="#SVGID_1_"  style="overflow:visible;"/>
			</clipPath>
			<g class="st1">
				
					<radialGradient id="SVGID_3_" cx="1400.0376" cy="1099.1475" r="938.5272" gradientTransform="matrix(1 0 0 -1 0 1080)" gradientUnits="userSpaceOnUse">
					<stop  offset="3.306878e-04" style="stop-color:#4854F7;stop-opacity:0"/>
					<stop  offset="1" style="stop-color:#4854F7"/>
				</radialGradient>
				<path class="st2" d="M703.72-607.21l327.05-346.18L2342.83,286.2l-327.05,346.18c-342.3,362.31-913.51,378.54-1275.82,36.24
					C377.65,326.31,361.42-244.89,703.72-607.21"/>
			</g>
		</g>
		<g>
			<defs>
				<polygon id="SVGID_4_" points="-0.77,1076.27 1919.66,1082.08 1920.98,0.76 0.12,0.18 				"/>
			</defs>
			<clipPath id="SVGID_5_">
				<use xlink:href="#SVGID_4_"  style="overflow:visible;"/>
			</clipPath>
			<polygon class="st3" points="-118.61,1168.11 -1231.85,15.8 -2.21,-1125.8 1111.03,26.51 			"/>
		</g>
		<g>
			<defs>
				<polygon id="SVGID_6_" points="-0.77,1076.27 1919.66,1082.08 1920.98,0.76 0.12,0.18 				"/>
			</defs>
			<clipPath id="SVGID_7_">
				<use xlink:href="#SVGID_6_"  style="overflow:visible;"/>
			</clipPath>
			
				<linearGradient id="SVGID_8_" gradientUnits="userSpaceOnUse" x1="3060.0613" y1="459.31" x2="4170.0396" y2="459.31" gradientTransform="matrix(0.9607 -0.2777 -0.2777 -0.9607 -1639.7781 2189.124)">
				<stop  offset="0" style="stop-color:#FC6870"/>
				<stop  offset="1" style="stop-color:#FC6870;stop-opacity:0"/>
			</linearGradient>
			<polygon class="st4" points="1326.56,1431.15 1018.84,364.89 2238.96,590.3 			"/>
		</g>
		<g>
			<defs>
				<polygon id="SVGID_9_" points="-0.77,1076.27 1919.66,1082.08 1920.98,0.76 0.12,0.18 				"/>
			</defs>
			<clipPath id="SVGID_10_">
				<use xlink:href="#SVGID_9_"  style="overflow:visible;"/>
			</clipPath>
			
				<radialGradient id="SVGID_11_" cx="803.3096" cy="501.6164" r="675.757" gradientTransform="matrix(1 3.037379e-03 3.037379e-03 -1 16.0069 1072.9464)" gradientUnits="userSpaceOnUse">
				<stop  offset="3.513558e-04" style="stop-color:#88F3F2;stop-opacity:0"/>
				<stop  offset="1" style="stop-color:#88F3F2"/>
			</radialGradient>
			<circle class="st5" cx="820.84" cy="573.77" r="675.76"/>
		</g>
	</g>
</g>
<g id="Layer_2_1_">
</g>
</svg>
