<?xml version="1.0" encoding="utf-8"?>
<!-- Generator: Adobe Illustrator 25.4.1, SVG Export Plug-In . SVG Version: 6.00 Build 0)  -->
<svg version="1.1" id="Layer_1" xmlns="http://www.w3.org/2000/svg" xmlns:xlink="http://www.w3.org/1999/xlink" x="0px" y="0px"
	 viewBox="0 0 1300 150" style="enable-background:new 0 0 1300 150;" xml:space="preserve">
<style type="text/css">
	.st0{clip-path:url(#SVGID_00000063593908261307842920000014545391034326579892_);fill:#3A414B;}
	
		.st1{opacity:0.53;clip-path:url(#SVGID_00000063593908261307842920000014545391034326579892_);fill:url(#SVGID_00000013889905186735750260000001667460431890141580_);}
	
		.st2{opacity:0.94;clip-path:url(#SVGID_00000063593908261307842920000014545391034326579892_);fill:url(#SVGID_00000072278874282416518440000016735102345849711516_);}
	
		.st3{clip-path:url(#SVGID_00000063593908261307842920000014545391034326579892_);fill:url(#SVGID_00000029034641621494210350000003358144009688966545_);}
	
		.st4{clip-path:url(#SVGID_00000063593908261307842920000014545391034326579892_);fill:url(#SVGID_00000132087608762231647410000002412818431941587345_);}
	.st5{fill:#FA1721;}
	.st6{fill:#123357;}
	.st7{fill:#FFBC00;}
	.st8{fill:#3A414B;}
	.st9{fill:#DE2621;}
	.st10{clip-path:url(#SVGID_00000137095879125227818880000005155015588923937970_);fill:#123357;}
	
		.st11{opacity:0.48;clip-path:url(#SVGID_00000137095879125227818880000005155015588923937970_);fill:url(#SVGID_00000147926253033551430460000015159585141833366442_);}
	
		.st12{opacity:0.73;clip-path:url(#SVGID_00000137095879125227818880000005155015588923937970_);fill:url(#SVGID_00000154405417983367832220000014860267771015698584_);}
	
		.st13{opacity:0.78;clip-path:url(#SVGID_00000137095879125227818880000005155015588923937970_);fill:url(#SVGID_00000181058949520062557400000018086101006868754071_);}
	.st14{opacity:0.48;clip-path:url(#SVGID_00000137095879125227818880000005155015588923937970_);}
	
		.st15{opacity:0.53;clip-path:url(#SVGID_00000137095879125227818880000005155015588923937970_);fill:url(#SVGID_00000121262674149527392980000000765825900572978341_);}
	.st16{opacity:0.46;clip-path:url(#SVGID_00000137095879125227818880000005155015588923937970_);fill:#3A414B;}
	.st17{opacity:0.22;clip-path:url(#SVGID_00000137095879125227818880000005155015588923937970_);fill:#3A414B;}
	.st18{clip-path:url(#SVGID_00000008117737669098003770000008743201822137620622_);fill:#3A414B;}
	
		.st19{opacity:0.48;clip-path:url(#SVGID_00000008117737669098003770000008743201822137620622_);fill:url(#SVGID_00000145052368877613405110000011904375482353446066_);}
	.st20{opacity:0.48;clip-path:url(#SVGID_00000008117737669098003770000008743201822137620622_);}
	
		.st21{opacity:0.53;clip-path:url(#SVGID_00000008117737669098003770000008743201822137620622_);fill:url(#SVGID_00000005243270523875932930000015871321931357787296_);}
	
		.st22{opacity:0.53;clip-path:url(#SVGID_00000008117737669098003770000008743201822137620622_);fill:url(#SVGID_00000183230688411686298610000006397587590659120285_);}
	
		.st23{opacity:0.54;clip-path:url(#SVGID_00000008117737669098003770000008743201822137620622_);fill:url(#SVGID_00000011031194726246653590000012580561593817474212_);}
	
		.st24{opacity:0.73;clip-path:url(#SVGID_00000008117737669098003770000008743201822137620622_);fill:url(#SVGID_00000004518968432057074840000016493433292901802122_);}
	
		.st25{opacity:0.29;clip-path:url(#SVGID_00000008117737669098003770000008743201822137620622_);fill:url(#SVGID_00000166665388421988343260000002275605934840498322_);}
	
		.st26{opacity:0.54;clip-path:url(#SVGID_00000008117737669098003770000008743201822137620622_);fill:url(#SVGID_00000163064749728323676460000011024559003746782643_);}
	
		.st27{opacity:0.68;clip-path:url(#SVGID_00000008117737669098003770000008743201822137620622_);fill:url(#SVGID_00000064320803885984023690000016899586243391966654_);}
	
		.st28{opacity:0.41;clip-path:url(#SVGID_00000008117737669098003770000008743201822137620622_);fill:url(#SVGID_00000139987788737143850690000010473618130134502788_);}
	.st29{clip-path:url(#SVGID_00000029029455888327746180000017619311337295542913_);fill:#3A414B;}
	
		.st30{opacity:0.48;clip-path:url(#SVGID_00000029029455888327746180000017619311337295542913_);fill:url(#SVGID_00000096033976775566594290000011136719592144269720_);}
	.st31{opacity:0.48;clip-path:url(#SVGID_00000029029455888327746180000017619311337295542913_);}
	
		.st32{opacity:0.53;clip-path:url(#SVGID_00000029029455888327746180000017619311337295542913_);fill:url(#SVGID_00000056423562401430317980000004437282094744737177_);}
	
		.st33{opacity:0.53;clip-path:url(#SVGID_00000029029455888327746180000017619311337295542913_);fill:url(#SVGID_00000137110701690739771920000017417104755522734769_);}
	
		.st34{opacity:0.54;clip-path:url(#SVGID_00000029029455888327746180000017619311337295542913_);fill:url(#SVGID_00000072268797277710833500000003304478119514344849_);}
	
		.st35{opacity:0.73;clip-path:url(#SVGID_00000029029455888327746180000017619311337295542913_);fill:url(#SVGID_00000161616901793507056540000001363641204222764949_);}
	
		.st36{opacity:0.29;clip-path:url(#SVGID_00000029029455888327746180000017619311337295542913_);fill:url(#SVGID_00000026130525706895891450000005612811149459645588_);}
	
		.st37{opacity:0.54;clip-path:url(#SVGID_00000029029455888327746180000017619311337295542913_);fill:url(#SVGID_00000139293064316195703930000012659833124062791810_);}
	
		.st38{opacity:0.68;clip-path:url(#SVGID_00000029029455888327746180000017619311337295542913_);fill:url(#SVGID_00000161596617703402835800000007914931640564641922_);}
	
		.st39{opacity:0.41;clip-path:url(#SVGID_00000029029455888327746180000017619311337295542913_);fill:url(#SVGID_00000080927813335034515880000003139725212598569135_);}
	.st40{clip-path:url(#SVGID_00000179633264787985681380000007799542744262737069_);fill:#3A414B;}
	
		.st41{opacity:0.48;clip-path:url(#SVGID_00000179633264787985681380000007799542744262737069_);fill:url(#SVGID_00000178194701743832353960000006915803288526904706_);}
	.st42{opacity:0.48;clip-path:url(#SVGID_00000179633264787985681380000007799542744262737069_);}
	
		.st43{opacity:0.53;clip-path:url(#SVGID_00000179633264787985681380000007799542744262737069_);fill:url(#SVGID_00000107564912324258836970000003649436397299460031_);}
	
		.st44{opacity:0.53;clip-path:url(#SVGID_00000179633264787985681380000007799542744262737069_);fill:url(#SVGID_00000005971338393489135250000007790934649237262483_);}
	
		.st45{opacity:0.54;clip-path:url(#SVGID_00000179633264787985681380000007799542744262737069_);fill:url(#SVGID_00000109710221852702678620000008074279991448261280_);}
	
		.st46{opacity:0.73;clip-path:url(#SVGID_00000179633264787985681380000007799542744262737069_);fill:url(#SVGID_00000060738836235803950580000000636601276834333097_);}
	
		.st47{opacity:0.29;clip-path:url(#SVGID_00000179633264787985681380000007799542744262737069_);fill:url(#SVGID_00000122680992671007148790000016314241552585619383_);}
	
		.st48{opacity:0.54;clip-path:url(#SVGID_00000179633264787985681380000007799542744262737069_);fill:url(#SVGID_00000124156257400150250400000006648531627612988856_);}
	
		.st49{opacity:0.68;clip-path:url(#SVGID_00000179633264787985681380000007799542744262737069_);fill:url(#SVGID_00000103948380593437823310000013953046372279864465_);}
	
		.st50{opacity:0.41;clip-path:url(#SVGID_00000179633264787985681380000007799542744262737069_);fill:url(#SVGID_00000153685616187340662980000004128686002375634849_);}
	.st51{clip-path:url(#SVGID_00000075866342944730596410000002001311551893131450_);fill:#3A414B;}
	
		.st52{opacity:0.48;clip-path:url(#SVGID_00000075866342944730596410000002001311551893131450_);fill:url(#SVGID_00000075885564392221861130000014398594183793517445_);}
	.st53{opacity:0.48;clip-path:url(#SVGID_00000075866342944730596410000002001311551893131450_);}
	
		.st54{opacity:0.53;clip-path:url(#SVGID_00000075866342944730596410000002001311551893131450_);fill:url(#SVGID_00000150079580550623626200000004609693142577757061_);}
	
		.st55{opacity:0.53;clip-path:url(#SVGID_00000075866342944730596410000002001311551893131450_);fill:url(#SVGID_00000029764434107095318970000014169656854616073358_);}
	
		.st56{opacity:0.54;clip-path:url(#SVGID_00000075866342944730596410000002001311551893131450_);fill:url(#SVGID_00000057832141566244700780000004199252463928645253_);}
	
		.st57{opacity:0.73;clip-path:url(#SVGID_00000075866342944730596410000002001311551893131450_);fill:url(#SVGID_00000138543701516272773350000001609668646281173175_);}
	
		.st58{opacity:0.29;clip-path:url(#SVGID_00000075866342944730596410000002001311551893131450_);fill:url(#SVGID_00000111152165929140870590000001715512387414181255_);}
	
		.st59{opacity:0.54;clip-path:url(#SVGID_00000075866342944730596410000002001311551893131450_);fill:url(#SVGID_00000049908137452672564560000015793951944916923562_);}
	
		.st60{opacity:0.68;clip-path:url(#SVGID_00000075866342944730596410000002001311551893131450_);fill:url(#SVGID_00000029724374000851790950000008891735412307568791_);}
	
		.st61{opacity:0.41;clip-path:url(#SVGID_00000075866342944730596410000002001311551893131450_);fill:url(#SVGID_00000041272654000995964050000003714075618341444251_);}
	.st62{clip-path:url(#SVGID_00000116210601641258221700000017095170443608134826_);fill:#3A414B;}
	
		.st63{opacity:0.53;clip-path:url(#SVGID_00000116210601641258221700000017095170443608134826_);fill:url(#SVGID_00000049201803051858945220000003676132747758323338_);}
	
		.st64{opacity:0.94;clip-path:url(#SVGID_00000116210601641258221700000017095170443608134826_);fill:url(#SVGID_00000050664953392504942310000015995314534013555606_);}
	
		.st65{clip-path:url(#SVGID_00000116210601641258221700000017095170443608134826_);fill:url(#SVGID_00000122688918531182093880000000027534579445019776_);}
	
		.st66{clip-path:url(#SVGID_00000116210601641258221700000017095170443608134826_);fill:url(#SVGID_00000071552858072496520240000012907417075975016882_);}
	.st67{fill:#FFFFFF;}
	.st68{clip-path:url(#SVGID_00000127747858338939945960000003090935788039297672_);fill:#3A414B;}
	
		.st69{opacity:0.53;clip-path:url(#SVGID_00000127747858338939945960000003090935788039297672_);fill:url(#SVGID_00000067210900575318730400000008995114195482938522_);}
	
		.st70{opacity:0.94;clip-path:url(#SVGID_00000127747858338939945960000003090935788039297672_);fill:url(#SVGID_00000101088275225023519230000002438273140228099489_);}
	
		.st71{clip-path:url(#SVGID_00000127747858338939945960000003090935788039297672_);fill:url(#SVGID_00000127011291621686674310000012799632539246758042_);}
	
		.st72{clip-path:url(#SVGID_00000127747858338939945960000003090935788039297672_);fill:url(#SVGID_00000042709035369049285660000011203794877124634777_);}
	.st73{clip-path:url(#SVGID_00000039853399468213489440000003375568541763664550_);fill:#3A414B;}
	
		.st74{opacity:0.53;clip-path:url(#SVGID_00000039853399468213489440000003375568541763664550_);fill:url(#SVGID_00000052813023471829685630000011131491415342609563_);}
	
		.st75{opacity:0.94;clip-path:url(#SVGID_00000039853399468213489440000003375568541763664550_);fill:url(#SVGID_00000043444439452994543480000014200807794995518606_);}
	
		.st76{clip-path:url(#SVGID_00000039853399468213489440000003375568541763664550_);fill:url(#SVGID_00000072265368852572160410000014320678656104070798_);}
	
		.st77{clip-path:url(#SVGID_00000039853399468213489440000003375568541763664550_);fill:url(#SVGID_00000049197017948976383450000007358170899824984967_);}
</style>
<g>
	<g>
		<path d="M81.07,80.27V3.13h17.81v108.42H79.37l-42.9-77.13v77.13H18.65V3.13h19.52L81.07,80.27z"/>
		<path d="M136.2,80.58c0.77,10.38,5.27,18.74,19.36,18.74c9.6,0,13.32-4.34,15.33-9.45h17.04c-2.01,12.39-13.94,23.54-32.37,23.54
			c-24.32,0-36.09-16.73-36.09-37.95c0-21.68,12.86-37.95,35.62-37.95c18.74,0,33.46,14.09,33.46,32.53c0,2.48,0,5.89-0.77,10.53
			H136.2z M136.2,68.03h35.93c0-11-7.28-17.81-17.5-17.81C144.26,50.22,136.2,56.26,136.2,68.03z"/>
		<path d="M254.68,57.65l-19.05,53.9h-11.31l-28.03-72.18h18.12l15.64,45.69l16.26-45.69h16.57l16.26,45.69l15.64-45.69h18.12
			l-28.03,72.18h-11.31L254.68,57.65z"/>
		<path d="M356.28,111.55h-19.52l21.53-43.37L317.71,3.13h20.6l28.96,46.62l23.23-46.62h19.52L356.28,111.55z"/>
		<path d="M403.52,75.46c0-20.44,15.02-37.95,37.95-37.95c23.23,0,38.26,17.5,38.26,37.95c0,20.45-15.02,37.95-38.26,37.95
			C418.54,113.41,403.52,95.91,403.52,75.46z M462.84,75.46c0-12.39-8.36-22.92-21.37-22.92c-12.7,0-21.06,10.53-21.06,22.92
			c0,12.39,8.36,22.92,21.06,22.92C454.47,98.39,462.84,87.86,462.84,75.46z"/>
		<path d="M545.85,55.02c-2.63-0.62-4.03-0.77-6.66-0.77c-14.4,0-22.3,8.21-22.3,26.17v31.13H500V39.38h16.88v11.62
			c3.25-6.66,12.7-12.55,22.3-12.55c2.63,0,4.8,0.31,6.66,1.08V55.02z"/>
		<path d="M596.03,75.46l30.05,36.09h-21.06L578.53,79.8v31.75h-16.88V3.13h16.88v68.15l26.49-31.91h21.06L596.03,75.46z"/>
		<path d="M745.02,76.7c-4.8,21.06-24.78,37.48-51.42,37.48c-35.47,0-57-26.49-57-57c0-29.43,21.06-56.69,55.14-56.69
			c32.22,0,49.87,18.74,53.28,42.13h-18.74c-2.63-14.87-14.4-26.17-32.22-26.17c-24.94,0-39.19,19.52-39.19,40.73
			c0,22.3,14.71,41.05,41.04,41.05c12.55,0,26.02-9.14,29.58-21.53H745.02z"/>
		<path d="M773.51,0.5c6.97,0,12.55,5.57,12.55,12.55c0,6.82-5.58,12.39-12.55,12.39c-6.82,0-12.39-5.57-12.39-12.39
			C761.12,6.07,766.7,0.5,773.51,0.5z M765.15,39.38h16.88v72.18h-16.88V39.38z"/>
		<path d="M847.7,111.55c-2.63,0.46-7.59,0.93-12.55,0.93c-8.21,0-23.39-1.08-23.39-25.4V53.47h-12.24V39.38h12.24V17.54h16.88
			v21.84h16.57v14.09h-16.57v29.74c0,12.55,3.87,14.09,10.53,14.09c2.63,0,6.82-0.31,8.52-0.62V111.55z"/>
		<path d="M873.71,142.06c-5.89-4.96-9.6-12.39-9.76-22.3h17.04c0.77,10.38,8.21,15.49,17.04,15.49c10.38,0,17.66-3.72,17.66-17.19
			v-16.57c-4.49,7.74-12.86,11.93-23.54,11.93c-10.38,0-17.66-3.72-21.68-9.76c-3.56-5.42-4.65-11.46-4.65-21.37v-42.9h16.88V76.7
			c0,12.39,3.56,21.84,15.64,21.84c11.77,0,17.35-9.45,17.35-21.84V39.38h16.88v78.68c0,10.69-3.1,18.43-8.98,23.7
			c-6.04,5.27-14.71,7.75-25.87,7.75C888.12,149.5,879.76,147.02,873.71,142.06z"/>
		<path d="M1060.81,76.7c-4.8,21.06-24.78,37.48-51.42,37.48c-35.47,0-57-26.49-57-57c0-29.43,21.06-56.69,55.14-56.69
			c32.22,0,49.87,18.74,53.28,42.13h-18.74c-2.63-14.87-14.4-26.17-32.22-26.17c-24.94,0-39.19,19.52-39.19,40.73
			c0,22.3,14.71,41.05,41.04,41.05c12.55,0,26.02-9.14,29.58-21.53H1060.81z"/>
		<path d="M1075.51,75.46c0-20.44,15.02-37.95,37.95-37.95c23.23,0,38.26,17.5,38.26,37.95c0,20.45-15.02,37.95-38.26,37.95
			C1090.54,113.41,1075.51,95.91,1075.51,75.46z M1134.83,75.46c0-12.39-8.36-22.92-21.37-22.92c-12.7,0-21.06,10.53-21.06,22.92
			c0,12.39,8.36,22.92,21.06,22.92C1126.47,98.39,1134.83,87.86,1134.83,75.46z"/>
		<path d="M1180.36,0.5c6.97,0,12.55,5.57,12.55,12.55c0,6.82-5.58,12.39-12.55,12.39c-6.82,0-12.39-5.57-12.39-12.39
			C1167.97,6.07,1173.55,0.5,1180.36,0.5z M1172,39.38h16.88v72.18H1172V39.38z"/>
		<path d="M1214.59,39.38h16.88v10.07c4.49-7.74,12.86-11.93,23.54-11.93c10.38,0,17.66,3.72,21.68,9.76
			c3.56,5.42,4.65,11.46,4.65,21.37v42.9h-16.88V74.22c0-12.39-3.56-21.84-15.64-21.84c-11.77,0-17.35,9.45-17.35,21.84v37.33
			h-16.88V39.38z"/>
	</g>
</g>
</svg>
