<?xml version="1.0" encoding="utf-8"?>
<!-- Generator: Adobe Illustrator 25.4.1, SVG Export Plug-In . SVG Version: 6.00 Build 0)  -->
<svg version="1.1" id="Layer_1" xmlns="http://www.w3.org/2000/svg" xmlns:xlink="http://www.w3.org/1999/xlink" x="0px" y="0px"
	 viewBox="0 0 1300 150" style="enable-background:new 0 0 1300 150;" xml:space="preserve">
<style type="text/css">
	.st0{clip-path:url(#SVGID_00000062187299449763417460000006122004333744363148_);fill:#3A414B;}
	
		.st1{opacity:0.53;clip-path:url(#SVGID_00000062187299449763417460000006122004333744363148_);fill:url(#SVGID_00000125567275402249534020000003813623109197711547_);}
	
		.st2{opacity:0.94;clip-path:url(#SVGID_00000062187299449763417460000006122004333744363148_);fill:url(#SVGID_00000080207723458293513720000005076522422139040934_);}
	
		.st3{clip-path:url(#SVGID_00000062187299449763417460000006122004333744363148_);fill:url(#SVGID_00000138547443597620696650000007196577184785872043_);}
	
		.st4{clip-path:url(#SVGID_00000062187299449763417460000006122004333744363148_);fill:url(#SVGID_00000102502621068513260460000017998206594712993452_);}
	.st5{fill:#FA1721;}
	.st6{fill:#123357;}
	.st7{fill:#FFBC00;}
	.st8{fill:#3A414B;}
	.st9{fill:#DE2621;}
	.st10{clip-path:url(#SVGID_00000089534054765667680980000014247802872492250813_);fill:#123357;}
	
		.st11{opacity:0.48;clip-path:url(#SVGID_00000089534054765667680980000014247802872492250813_);fill:url(#SVGID_00000177459287593383790090000017339791844226500496_);}
	
		.st12{opacity:0.73;clip-path:url(#SVGID_00000089534054765667680980000014247802872492250813_);fill:url(#SVGID_00000076597161435831478190000012036752848185536904_);}
	
		.st13{opacity:0.78;clip-path:url(#SVGID_00000089534054765667680980000014247802872492250813_);fill:url(#SVGID_00000068657634470745466510000003263255687118305931_);}
	.st14{opacity:0.48;clip-path:url(#SVGID_00000089534054765667680980000014247802872492250813_);}
	
		.st15{opacity:0.53;clip-path:url(#SVGID_00000089534054765667680980000014247802872492250813_);fill:url(#SVGID_00000028312447095601681310000009208267823905654192_);}
	.st16{opacity:0.46;clip-path:url(#SVGID_00000089534054765667680980000014247802872492250813_);fill:#3A414B;}
	.st17{opacity:0.22;clip-path:url(#SVGID_00000089534054765667680980000014247802872492250813_);fill:#3A414B;}
	.st18{clip-path:url(#SVGID_00000020378544947563186770000012903240016094258562_);fill:#3A414B;}
	
		.st19{opacity:0.48;clip-path:url(#SVGID_00000020378544947563186770000012903240016094258562_);fill:url(#SVGID_00000167389941899054978350000011977363927244619177_);}
	.st20{opacity:0.48;clip-path:url(#SVGID_00000020378544947563186770000012903240016094258562_);}
	
		.st21{opacity:0.53;clip-path:url(#SVGID_00000020378544947563186770000012903240016094258562_);fill:url(#SVGID_00000104663719344904193470000004186643023781922202_);}
	
		.st22{opacity:0.53;clip-path:url(#SVGID_00000020378544947563186770000012903240016094258562_);fill:url(#SVGID_00000042736022586360459850000003428588711215017654_);}
	
		.st23{opacity:0.54;clip-path:url(#SVGID_00000020378544947563186770000012903240016094258562_);fill:url(#SVGID_00000160149595923050011550000005178399714995525039_);}
	
		.st24{opacity:0.73;clip-path:url(#SVGID_00000020378544947563186770000012903240016094258562_);fill:url(#SVGID_00000150069717514131992540000002756559633167073470_);}
	
		.st25{opacity:0.29;clip-path:url(#SVGID_00000020378544947563186770000012903240016094258562_);fill:url(#SVGID_00000126324250128953797240000009573173612090338695_);}
	
		.st26{opacity:0.54;clip-path:url(#SVGID_00000020378544947563186770000012903240016094258562_);fill:url(#SVGID_00000000919210325056978750000010827141168807572129_);}
	
		.st27{opacity:0.68;clip-path:url(#SVGID_00000020378544947563186770000012903240016094258562_);fill:url(#SVGID_00000140000473364141918510000015369598796542807216_);}
	
		.st28{opacity:0.41;clip-path:url(#SVGID_00000020378544947563186770000012903240016094258562_);fill:url(#SVGID_00000145739002189548450090000017139443805888518800_);}
	.st29{clip-path:url(#SVGID_00000170252174573449227190000010360228818807308212_);fill:#3A414B;}
	
		.st30{opacity:0.48;clip-path:url(#SVGID_00000170252174573449227190000010360228818807308212_);fill:url(#SVGID_00000052799455024532760270000011824708217061086863_);}
	.st31{opacity:0.48;clip-path:url(#SVGID_00000170252174573449227190000010360228818807308212_);}
	
		.st32{opacity:0.53;clip-path:url(#SVGID_00000170252174573449227190000010360228818807308212_);fill:url(#SVGID_00000080189474745294119480000000073074933523612338_);}
	
		.st33{opacity:0.53;clip-path:url(#SVGID_00000170252174573449227190000010360228818807308212_);fill:url(#SVGID_00000150783984555023635550000005152792583134145426_);}
	
		.st34{opacity:0.54;clip-path:url(#SVGID_00000170252174573449227190000010360228818807308212_);fill:url(#SVGID_00000176037442969920167380000017731917357478951595_);}
	
		.st35{opacity:0.73;clip-path:url(#SVGID_00000170252174573449227190000010360228818807308212_);fill:url(#SVGID_00000010305005372788413870000007678740781919823513_);}
	
		.st36{opacity:0.29;clip-path:url(#SVGID_00000170252174573449227190000010360228818807308212_);fill:url(#SVGID_00000043444822580742329390000004615196884409122948_);}
	
		.st37{opacity:0.54;clip-path:url(#SVGID_00000170252174573449227190000010360228818807308212_);fill:url(#SVGID_00000146482323638143140100000016213135065457381273_);}
	
		.st38{opacity:0.68;clip-path:url(#SVGID_00000170252174573449227190000010360228818807308212_);fill:url(#SVGID_00000001663254208940184350000012065761004673750192_);}
	
		.st39{opacity:0.41;clip-path:url(#SVGID_00000170252174573449227190000010360228818807308212_);fill:url(#SVGID_00000104678238467013760180000000925348109538311580_);}
	.st40{clip-path:url(#SVGID_00000034070343415622664110000015344285223602519471_);fill:#3A414B;}
	
		.st41{opacity:0.48;clip-path:url(#SVGID_00000034070343415622664110000015344285223602519471_);fill:url(#SVGID_00000053504868717983281710000007873875488002098565_);}
	.st42{opacity:0.48;clip-path:url(#SVGID_00000034070343415622664110000015344285223602519471_);}
	
		.st43{opacity:0.53;clip-path:url(#SVGID_00000034070343415622664110000015344285223602519471_);fill:url(#SVGID_00000005239595229912333860000016722355232250835585_);}
	
		.st44{opacity:0.53;clip-path:url(#SVGID_00000034070343415622664110000015344285223602519471_);fill:url(#SVGID_00000007388993467068846130000012880197101267048870_);}
	
		.st45{opacity:0.54;clip-path:url(#SVGID_00000034070343415622664110000015344285223602519471_);fill:url(#SVGID_00000079460480555219309170000000794467096681776011_);}
	
		.st46{opacity:0.73;clip-path:url(#SVGID_00000034070343415622664110000015344285223602519471_);fill:url(#SVGID_00000083779484698781673900000015746920569031658380_);}
	
		.st47{opacity:0.29;clip-path:url(#SVGID_00000034070343415622664110000015344285223602519471_);fill:url(#SVGID_00000023272942141150785900000005995327264669637505_);}
	
		.st48{opacity:0.54;clip-path:url(#SVGID_00000034070343415622664110000015344285223602519471_);fill:url(#SVGID_00000069372767731912989330000002136520664749846419_);}
	
		.st49{opacity:0.68;clip-path:url(#SVGID_00000034070343415622664110000015344285223602519471_);fill:url(#SVGID_00000043450340905888370000000014278323789972325518_);}
	
		.st50{opacity:0.41;clip-path:url(#SVGID_00000034070343415622664110000015344285223602519471_);fill:url(#SVGID_00000173146656156623115940000003158746867103646598_);}
	.st51{clip-path:url(#SVGID_00000051384613167081565410000010683240944809683105_);fill:#3A414B;}
	
		.st52{opacity:0.48;clip-path:url(#SVGID_00000051384613167081565410000010683240944809683105_);fill:url(#SVGID_00000009592170069781815630000007831537779185886642_);}
	.st53{opacity:0.48;clip-path:url(#SVGID_00000051384613167081565410000010683240944809683105_);}
	
		.st54{opacity:0.53;clip-path:url(#SVGID_00000051384613167081565410000010683240944809683105_);fill:url(#SVGID_00000160148668828524946280000009475351239089219216_);}
	
		.st55{opacity:0.53;clip-path:url(#SVGID_00000051384613167081565410000010683240944809683105_);fill:url(#SVGID_00000034804057024624665230000013423472157537082014_);}
	
		.st56{opacity:0.54;clip-path:url(#SVGID_00000051384613167081565410000010683240944809683105_);fill:url(#SVGID_00000066479137219151078400000006939319685623671697_);}
	
		.st57{opacity:0.73;clip-path:url(#SVGID_00000051384613167081565410000010683240944809683105_);fill:url(#SVGID_00000103250639015513233300000017140812824718222485_);}
	
		.st58{opacity:0.29;clip-path:url(#SVGID_00000051384613167081565410000010683240944809683105_);fill:url(#SVGID_00000060744142249785143810000010790641105399269031_);}
	
		.st59{opacity:0.54;clip-path:url(#SVGID_00000051384613167081565410000010683240944809683105_);fill:url(#SVGID_00000016759565324629969650000001784966109594480274_);}
	
		.st60{opacity:0.68;clip-path:url(#SVGID_00000051384613167081565410000010683240944809683105_);fill:url(#SVGID_00000125571598032892901490000011218567987383959958_);}
	
		.st61{opacity:0.41;clip-path:url(#SVGID_00000051384613167081565410000010683240944809683105_);fill:url(#SVGID_00000148632945369040883040000016566098857699794053_);}
	.st62{clip-path:url(#SVGID_00000144330132209641135030000005150395591881778614_);fill:#3A414B;}
	
		.st63{opacity:0.53;clip-path:url(#SVGID_00000144330132209641135030000005150395591881778614_);fill:url(#SVGID_00000109003583692710946060000010177811733804179867_);}
	
		.st64{opacity:0.94;clip-path:url(#SVGID_00000144330132209641135030000005150395591881778614_);fill:url(#SVGID_00000179613399058200899580000014282385721183602069_);}
	
		.st65{clip-path:url(#SVGID_00000144330132209641135030000005150395591881778614_);fill:url(#SVGID_00000025435297078786699490000002749186188963961772_);}
	
		.st66{clip-path:url(#SVGID_00000144330132209641135030000005150395591881778614_);fill:url(#SVGID_00000111167014427595209540000009480963973213134240_);}
	.st67{fill:#FFFFFF;}
	.st68{clip-path:url(#SVGID_00000137120837845327373920000017781254541228359593_);fill:#3A414B;}
	
		.st69{opacity:0.53;clip-path:url(#SVGID_00000137120837845327373920000017781254541228359593_);fill:url(#SVGID_00000025435675774584858010000007887497232079193472_);}
	
		.st70{opacity:0.94;clip-path:url(#SVGID_00000137120837845327373920000017781254541228359593_);fill:url(#SVGID_00000148626632413064429450000007117826192224619170_);}
	
		.st71{clip-path:url(#SVGID_00000137120837845327373920000017781254541228359593_);fill:url(#SVGID_00000069357999058865143500000015024529724939618994_);}
	
		.st72{clip-path:url(#SVGID_00000137120837845327373920000017781254541228359593_);fill:url(#SVGID_00000028323604597742376630000013277596406462952833_);}
	.st73{clip-path:url(#SVGID_00000008869149132496562160000003474931437971205531_);fill:#3A414B;}
	
		.st74{opacity:0.53;clip-path:url(#SVGID_00000008869149132496562160000003474931437971205531_);fill:url(#SVGID_00000053506266665121810560000015211275808426678913_);}
	
		.st75{opacity:0.94;clip-path:url(#SVGID_00000008869149132496562160000003474931437971205531_);fill:url(#SVGID_00000114047325286436645940000003009805674306906514_);}
	
		.st76{clip-path:url(#SVGID_00000008869149132496562160000003474931437971205531_);fill:url(#SVGID_00000128457431230989934120000005174949449993288634_);}
	
		.st77{clip-path:url(#SVGID_00000008869149132496562160000003474931437971205531_);fill:url(#SVGID_00000089562121835720140250000009579575690432676774_);}
</style>
<g>
	<g>
		<path class="st67" d="M81.07,80.27V3.13h17.81v108.42H79.37l-42.9-77.13v77.13H18.65V3.13h19.52L81.07,80.27z"/>
		<path class="st67" d="M136.2,80.58c0.77,10.38,5.27,18.74,19.36,18.74c9.6,0,13.32-4.34,15.33-9.45h17.04
			c-2.01,12.39-13.94,23.54-32.37,23.54c-24.32,0-36.09-16.73-36.09-37.95c0-21.68,12.86-37.95,35.62-37.95
			c18.74,0,33.46,14.09,33.46,32.53c0,2.48,0,5.89-0.77,10.53H136.2z M136.2,68.03h35.93c0-11-7.28-17.81-17.5-17.81
			C144.26,50.22,136.2,56.26,136.2,68.03z"/>
		<path class="st67" d="M254.68,57.65l-19.05,53.9h-11.31l-28.03-72.18h18.12l15.64,45.69l16.26-45.69h16.57l16.26,45.69
			l15.64-45.69h18.12l-28.03,72.18h-11.31L254.68,57.65z"/>
		<path class="st67" d="M356.28,111.55h-19.52l21.53-43.37L317.71,3.13h20.6l28.96,46.62l23.23-46.62h19.52L356.28,111.55z"/>
		<path class="st67" d="M403.52,75.46c0-20.44,15.02-37.95,37.95-37.95c23.23,0,38.26,17.5,38.26,37.95
			c0,20.45-15.02,37.95-38.26,37.95C418.54,113.41,403.52,95.91,403.52,75.46z M462.84,75.46c0-12.39-8.36-22.92-21.37-22.92
			c-12.7,0-21.06,10.53-21.06,22.92c0,12.39,8.36,22.92,21.06,22.92C454.47,98.39,462.84,87.86,462.84,75.46z"/>
		<path class="st67" d="M545.85,55.02c-2.63-0.62-4.03-0.77-6.66-0.77c-14.4,0-22.3,8.21-22.3,26.17v31.13H500V39.38h16.88v11.62
			c3.25-6.66,12.7-12.55,22.3-12.55c2.63,0,4.8,0.31,6.66,1.08V55.02z"/>
		<path class="st67" d="M596.03,75.46l30.05,36.09h-21.06L578.53,79.8v31.75h-16.88V3.13h16.88v68.15l26.49-31.91h21.06
			L596.03,75.46z"/>
		<path class="st67" d="M745.02,76.7c-4.8,21.06-24.78,37.48-51.42,37.48c-35.47,0-57-26.49-57-57c0-29.43,21.06-56.69,55.14-56.69
			c32.22,0,49.87,18.74,53.28,42.13h-18.74c-2.63-14.87-14.4-26.17-32.22-26.17c-24.94,0-39.19,19.52-39.19,40.73
			c0,22.3,14.71,41.05,41.04,41.05c12.55,0,26.02-9.14,29.58-21.53H745.02z"/>
		<path class="st67" d="M773.51,0.5c6.97,0,12.55,5.57,12.55,12.55c0,6.82-5.58,12.39-12.55,12.39c-6.82,0-12.39-5.57-12.39-12.39
			C761.12,6.07,766.7,0.5,773.51,0.5z M765.15,39.38h16.88v72.18h-16.88V39.38z"/>
		<path class="st67" d="M847.7,111.55c-2.63,0.46-7.59,0.93-12.55,0.93c-8.21,0-23.39-1.08-23.39-25.4V53.47h-12.24V39.38h12.24
			V17.54h16.88v21.84h16.57v14.09h-16.57v29.74c0,12.55,3.87,14.09,10.53,14.09c2.63,0,6.82-0.31,8.52-0.62V111.55z"/>
		<path class="st67" d="M873.71,142.06c-5.89-4.96-9.6-12.39-9.76-22.3h17.04c0.77,10.38,8.21,15.49,17.04,15.49
			c10.38,0,17.66-3.72,17.66-17.19v-16.57c-4.49,7.74-12.86,11.93-23.54,11.93c-10.38,0-17.66-3.72-21.68-9.76
			c-3.56-5.42-4.65-11.46-4.65-21.37v-42.9h16.88V76.7c0,12.39,3.56,21.84,15.64,21.84c11.77,0,17.35-9.45,17.35-21.84V39.38h16.88
			v78.68c0,10.69-3.1,18.43-8.98,23.7c-6.04,5.27-14.71,7.75-25.87,7.75C888.12,149.5,879.76,147.02,873.71,142.06z"/>
		<path class="st67" d="M1060.81,76.7c-4.8,21.06-24.78,37.48-51.42,37.48c-35.47,0-57-26.49-57-57c0-29.43,21.06-56.69,55.14-56.69
			c32.22,0,49.87,18.74,53.28,42.13h-18.74c-2.63-14.87-14.4-26.17-32.22-26.17c-24.94,0-39.19,19.52-39.19,40.73
			c0,22.3,14.71,41.05,41.04,41.05c12.55,0,26.02-9.14,29.58-21.53H1060.81z"/>
		<path class="st67" d="M1075.51,75.46c0-20.44,15.02-37.95,37.95-37.95c23.23,0,38.26,17.5,38.26,37.95
			c0,20.45-15.02,37.95-38.26,37.95C1090.54,113.41,1075.51,95.91,1075.51,75.46z M1134.83,75.46c0-12.39-8.36-22.92-21.37-22.92
			c-12.7,0-21.06,10.53-21.06,22.92c0,12.39,8.36,22.92,21.06,22.92C1126.47,98.39,1134.83,87.86,1134.83,75.46z"/>
		<path class="st67" d="M1180.36,0.5c6.97,0,12.55,5.57,12.55,12.55c0,6.82-5.58,12.39-12.55,12.39c-6.82,0-12.39-5.57-12.39-12.39
			C1167.97,6.07,1173.55,0.5,1180.36,0.5z M1172,39.38h16.88v72.18H1172V39.38z"/>
		<path class="st67" d="M1214.59,39.38h16.88v10.07c4.49-7.74,12.86-11.93,23.54-11.93c10.38,0,17.66,3.72,21.68,9.76
			c3.56,5.42,4.65,11.46,4.65,21.37v42.9h-16.88V74.22c0-12.39-3.56-21.84-15.64-21.84c-11.77,0-17.35,9.45-17.35,21.84v37.33
			h-16.88V39.38z"/>
	</g>
</g>
</svg>
