<?xml version="1.0" encoding="utf-8"?>
<!-- Generator: Adobe Illustrator 25.2.0, SVG Export Plug-In . SVG Version: 6.00 Build 0)  -->
<svg version="1.1" xmlns="http://www.w3.org/2000/svg" xmlns:xlink="http://www.w3.org/1999/xlink" x="0px" y="0px"
	 viewBox="0 0 1024 165" style="enable-background:new 0 0 1024 165;" xml:space="preserve">
<g id="Layer_1">
	<g>
		<polygon points="119.23,10.84 73.58,117.51 27.71,10.84 5.19,10.84 5.19,154.16 28.74,154.16 28.74,65.5 64.57,154.16 
			82.38,154.16 118.21,65.5 118.21,154.16 141.76,154.16 141.76,10.84 		"/>
		<g>
			<path d="M175.73,58.75h22.32v95.41h-22.32V58.75z M186.78,7.36c9.22,0,16.59,7.37,16.59,16.58c0,9.01-7.37,16.38-16.59,16.38
				c-9.01,0-16.38-7.37-16.38-16.38C170.4,14.73,177.78,7.36,186.78,7.36"/>
			<path d="M303.28,106.45c0-16.38-11.05-30.3-28.25-30.3c-16.79,0-27.85,13.92-27.85,30.3s11.06,30.3,27.85,30.3
				C292.22,136.76,303.28,122.84,303.28,106.45 M325.6,58.75v95.41h-22.32v-12.9c-5.93,9.62-18.42,15.36-29.48,15.36
				c-29.07,0-48.94-23.14-48.94-50.17c0-27.02,19.86-50.16,48.94-50.16c11.06,0,23.55,5.73,29.48,15.36v-12.9H325.6z"/>
			<path d="M479.97,154.16v-53.44c0-15.15-5.32-24.78-17.81-24.78c-11.26,0-20.07,6.96-20.07,29.69v48.53h-22.32v-53.64
				c0-15.15-4.91-24.57-17.4-24.57c-11.26,0-20.48,6.96-20.48,29.69v48.53h-22.32V58.75h22.32v13.31
				c4.1-8.81,14.13-15.77,26.62-15.77c17.41,0,26,7.58,30.1,16.99c4.5-9.62,15.76-16.99,29.28-16.99c28.66,0,34.4,19.66,34.4,37.47
				v60.4H479.97z"/>
			<path d="M534.82,58.75h22.32v95.41h-22.32V58.75z M545.88,7.36c9.21,0,16.58,7.37,16.58,16.58c0,9.01-7.37,16.38-16.58,16.38
				c-9.01,0-16.38-7.37-16.38-16.38C529.5,14.73,536.87,7.36,545.88,7.36"/>
			<path d="M727.28,108.09c-6.35,27.85-32.76,49.55-67.98,49.55c-46.88,0-75.35-35.01-75.35-75.35c0-38.9,27.85-74.94,72.89-74.94
				c42.59,0,65.93,24.77,70.43,55.69h-24.77c-3.48-19.66-19.04-34.6-42.59-34.6c-32.96,0-51.8,25.8-51.8,53.85
				c0,29.48,19.45,54.26,54.26,54.26c16.58,0,34.4-12.08,39.1-28.46H727.28z"/>
			<path d="M825.13,106.45c0-16.38-11.05-30.3-28.25-30.3c-16.79,0-27.85,13.92-27.85,30.3c0,16.38,11.06,30.3,27.85,30.3
				C814.08,136.76,825.13,122.83,825.13,106.45 M746.72,106.45c0-27.02,19.86-50.16,50.17-50.16c30.71,0,50.57,23.14,50.57,50.16
				c0,27.03-19.86,50.17-50.57,50.17C766.58,156.62,746.72,133.48,746.72,106.45"/>
			<path d="M874.26,58.75h22.32v95.41h-22.32V58.75z M885.32,7.36c9.22,0,16.59,7.37,16.59,16.58c0,9.01-7.37,16.38-16.59,16.38
				c-9.01,0-16.38-7.37-16.38-16.38C868.94,14.73,876.31,7.36,885.32,7.36"/>
			<path d="M930.56,58.75h22.32v13.31c5.93-10.24,16.99-15.77,31.12-15.77c13.72,0,23.34,4.91,28.66,12.9
				c4.71,7.16,6.14,15.15,6.14,28.26v56.71h-22.32v-49.35c0-16.38-4.71-28.87-20.68-28.87c-15.56,0-22.93,12.49-22.93,28.87v49.35
				h-22.32V58.75z"/>
		</g>
	</g>
</g>
<g id="Layer_2">
</g>
</svg>
