<?xml version="1.0" encoding="utf-8"?>
<!-- Generator: Adobe Illustrator 25.4.1, SVG Export Plug-In . SVG Version: 6.00 Build 0)  -->
<svg version="1.1" id="Layer_1" xmlns="http://www.w3.org/2000/svg" xmlns:xlink="http://www.w3.org/1999/xlink" x="0px" y="0px"
	 viewBox="0 0 1080 1920" style="enable-background:new 0 0 1080 1920;" xml:space="preserve">
<style type="text/css">
	.st0{clip-path:url(#SVGID_00000014625756609352921130000001373823133647522985_);}
	.st1{fill:#F3EDDF;}
	.st2{fill:#62D9D9;}
	.st3{opacity:0.9;fill:#F25D50;enable-background:new    ;}
	.st4{fill:none;}
	.st5{opacity:0.7;}
	.st6{fill:#07869F;}
	.st7{opacity:0.46;}
	.st8{opacity:0.67;}
	.st9{fill:url(#SVGID_00000062896559116094935720000013686658062515078802_);}
</style>
<g>
	<defs>
		<rect id="SVGID_1_" width="1080" height="1920"/>
	</defs>
	<clipPath id="SVGID_00000052825001104454808770000000420750030242378644_">
		<use xlink:href="#SVGID_1_"  style="overflow:visible;"/>
	</clipPath>
	<g style="clip-path:url(#SVGID_00000052825001104454808770000000420750030242378644_);">
		<rect x="-0.41" y="-0.99" class="st1" width="1080" height="1921.78"/>
		<rect x="399.09" y="-356.54" class="st2" width="999.55" height="999.55"/>
		<rect x="-32.68" y="435.13" class="st3" width="1142.55" height="1142.55"/>
		<rect x="-0.41" y="-0.99" class="st4" width="1080" height="1921.78"/>
		<g class="st5">
			<path class="st6" d="M204.34,780.35h-274.6V-260.4h271.23c284.25,0,521.8,232.53,523.72,516.77
				C726.66,545.42,492.93,780.35,204.34,780.35"/>
		</g>
		<rect x="-0.41" y="-0.99" class="st4" width="1080" height="1921.78"/>
		<g class="st7">
			<path class="st1" d="M-26.92,2300.7h-368.77V903.01h364.26c381.73,0,700.75,312.28,703.34,694
				C674.53,1985.19,360.65,2300.7-26.92,2300.7"/>
		</g>
		<rect x="-0.41" y="-0.99" class="st4" width="1080" height="1921.78"/>
		<g class="st8">
			
				<linearGradient id="SVGID_00000176730893983280373690000007547350450413304481_" gradientUnits="userSpaceOnUse" x1="1236.2148" y1="-3914.5542" x2="653.1277" y2="-3920.1072" gradientTransform="matrix(6.123234e-17 1 1 -6.123234e-17 4613 455)">
				<stop  offset="0.2121" style="stop-color:#F25D50"/>
				<stop  offset="0.4572" style="stop-color:#C98177"/>
				<stop  offset="1" style="stop-color:#62D9D9"/>
			</linearGradient>
			<path style="fill:url(#SVGID_00000176730893983280373690000007547350450413304481_);" d="M812.18,764.5h268.41v1017.32H815.46
				c-277.85,0-510.05-227.29-511.93-505.14C301.62,994.14,530.09,764.5,812.18,764.5"/>
		</g>
	</g>
</g>
</svg>
