<?xml version="1.0" encoding="utf-8"?>
<!-- Generator: Adobe Illustrator 25.2.0, SVG Export Plug-In . SVG Version: 6.00 Build 0)  -->
<svg version="1.1" id="Layer_1" xmlns="http://www.w3.org/2000/svg" xmlns:xlink="http://www.w3.org/1999/xlink" x="0px" y="0px"
	 viewBox="0 0 1280 1920" style="enable-background:new 0 0 1280 1920;" xml:space="preserve">
<style type="text/css">
	.st0{fill:#FEEBD1;}
	.st1{opacity:0.8;clip-path:url(#SVGID_2_);}
	.st2{fill:url(#SVGID_3_);}
	.st3{opacity:0.61;clip-path:url(#SVGID_5_);fill:#FC6870;enable-background:new    ;}
	.st4{clip-path:url(#SVGID_7_);fill:url(#SVGID_8_);}
	.st5{clip-path:url(#SVGID_10_);fill:url(#SVGID_11_);}
</style>
<g id="Layer_1_1_">
	<g>
		<g>
			<polygon id="SVGID_73_" class="st0" points="3.46,-0.12 -2.35,1920.32 1279.9,1921.64 1280.49,0.78 			"/>
		</g>
		<g>
			<defs>
				<polygon id="SVGID_1_" points="3.46,-0.12 -2.35,1920.32 1279.9,1921.64 1280.49,0.78 				"/>
			</defs>
			<clipPath id="SVGID_2_">
				<use xlink:href="#SVGID_1_"  style="overflow:visible;"/>
			</clipPath>
			<g class="st1">
				
					<radialGradient id="SVGID_3_" cx="902.2645" cy="1106.2916" r="1039.6954" gradientTransform="matrix(6.123234e-17 1 1 -6.123234e-17 66.723 569.5815)" gradientUnits="userSpaceOnUse">
					<stop  offset="3.306878e-04" style="stop-color:#4854F7;stop-opacity:0"/>
					<stop  offset="1" style="stop-color:#4854F7"/>
				</radialGradient>
				<path class="st2" d="M1824.47,700.47l383.49,362.31L834.75,2516.27l-383.49-362.31C49.89,1774.77,31.92,1141.99,411.11,740.62
					C790.32,339.24,1423.1,321.27,1824.47,700.47"/>
			</g>
		</g>
		<g>
			<defs>
				<polygon id="SVGID_4_" points="3.46,-0.12 -2.35,1920.32 1279.9,1921.64 1280.49,0.78 				"/>
			</defs>
			<clipPath id="SVGID_5_">
				<use xlink:href="#SVGID_4_"  style="overflow:visible;"/>
			</clipPath>
			<polygon class="st3" points="-88.38,-117.96 1063.93,-1231.19 2205.53,-1.56 1053.23,1111.68 			"/>
		</g>
		<g>
			<defs>
				<polygon id="SVGID_6_" points="3.46,-0.12 -2.35,1920.32 1279.9,1921.64 1280.49,0.78 				"/>
			</defs>
			<clipPath id="SVGID_7_">
				<use xlink:href="#SVGID_6_"  style="overflow:visible;"/>
			</clipPath>
			
				<linearGradient id="SVGID_8_" gradientUnits="userSpaceOnUse" x1="2037.651" y1="-302.6313" x2="3474.2805" y2="-302.6313" gradientTransform="matrix(0.2777 0.9607 0.9607 -0.2777 -317.3138 -1055.2344)">
				<stop  offset="0" style="stop-color:#FC6870"/>
				<stop  offset="1" style="stop-color:#FC6870;stop-opacity:0"/>
			</linearGradient>
			<polygon class="st4" points="-732.13,1185.81 647.91,787.54 356.16,2366.72 			"/>
		</g>
		<g>
			<defs>
				<polygon id="SVGID_9_" points="3.46,-0.12 -2.35,1920.32 1279.9,1921.64 1280.49,0.78 				"/>
			</defs>
			<clipPath id="SVGID_10_">
				<use xlink:href="#SVGID_9_"  style="overflow:visible;"/>
			</clipPath>
			
				<radialGradient id="SVGID_11_" cx="378.3227" cy="569.6456" r="770.4465" gradientTransform="matrix(-3.037379e-03 1 1 3.037379e-03 66.0236 584.3271)" gradientUnits="userSpaceOnUse">
				<stop  offset="3.513558e-04" style="stop-color:#88F3F2;stop-opacity:0"/>
				<stop  offset="1" style="stop-color:#88F3F2"/>
			</radialGradient>
			<circle class="st5" cx="634.52" cy="964.38" r="770.45"/>
		</g>
	</g>
</g>
<g id="Layer_2_1_">
</g>
</svg>
